<?xml version="1.0" encoding="UTF-8"?>
<svg width="96" height="96" viewBox="0 0 96 96" fill="none" xmlns="http://www.w3.org/2000/svg">
  <defs>
    <linearGradient id="gBg" x1="20" y1="6" x2="76" y2="90" gradientUnits="userSpaceOnUse">
      <stop stop-color="#1D6FB5"/>
      <stop offset="1" stop-color="#0F4F83"/>
    </linearGradient>
    <linearGradient id="gBell" x1="38" y1="22" x2="58" y2="72" gradientUnits="userSpaceOnUse">
      <stop stop-color="#FFFFFF"/>
      <stop offset="1" stop-color="#EDEFF3"/>
    </linearGradient>
    <filter id="shadow" x="0" y="0" width="200%" height="200%">
      <feOffset dy="2"/>
      <feGaussianBlur stdDeviation="3" result="b"/>
      <feColorMatrix type="matrix" values="0 0 0 0 0  0 0 0 0 0  0 0 0 0 0  0 0 0 .25 0"/>
      <feBlend in2="SourceGraphic"/>
    </filter>
  </defs>

  <!-- Blue circle background -->
  <circle cx="48" cy="48" r="44" fill="url(#gBg)"/>

  <!-- Bell -->
  <g filter="url(#shadow)">
    <!-- clapper -->
    <circle cx="48" cy="66" r="5" fill="#DDE2E9"/>
    <!-- body -->
    <path d="M48 20c3.3 0 6 2.7 6 6v2.2c7.8 3.2 13 11 13 20.1V57c2.5 2.4 3.9 3.6 3.9 5 0 1.7-1.5 3-3.3 3H24.4c-1.8 0-3.3-1.3-3.3-3 0-1.4 1.4-2.6 3.9-5v-8.7c0-9.2 5.2-17 13-20.1V26c0-3.3 2.7-6 6-6z" fill="url(#gBell)"/>
    <!-- lip -->
    <rect x="30" y="62" width="36" height="6" rx="3" fill="#E5E9F0"/>
  </g>

  <!-- Orange badge with ! -->
  <g transform="translate(60,10)">
    <circle cx="16" cy="16" r="10.5" fill="#FF7A26"/>
    <rect x="15" y="9.5" width="2" height="8" rx="1" fill="#fff"/>
    <rect x="15" y="19" width="2" height="2" rx="1" fill="#fff"/>
  </g>
</svg>

